DataType=double
version=3
OpenSimVersion=4.4-2022-10-11-798caa840
endheader
time	ground_force_r_vx	ground_force_r_vy	ground_force_r_vz	ground_force_r_px	ground_force_r_py	ground_force_r_pz	ground_force_l_vx	ground_force_l_vy	ground_force_l_vz	ground_force_l_px	ground_force_l_py	ground_force_l_pz	ground_torque_r_x	ground_torque_r_y	ground_torque_r_z	ground_torque_l_x	ground_torque_l_y	ground_torque_l_z
3.96	-0.001943632324467285	0.0006755446511056597	2.783327392061408e-05	1.863714617984627	0	-0.4433257502008536	-24.1591250625038	597.450793920817	33.74174587576729	2.015722229055057	0	-0.5651468683613055	0	8.092410476532447e-15	0	0	-2.511748983672177	0
3.965	-0.003521428379236	0.00121140272687616	5.410333509527472e-05	1.882622665850037	0	-0.4437061926043502	-21.51323626534184	588.8076790804871	33.33366917704848	2.016149997064999	0	-0.5652908084924311	0	2.309955070105285e-14	0	0	-2.549095861345634	0
3.97	-0.006425883418161965	0.002189535463244767	0.0001034595091237216	1.901678275346206	0	-0.4440959412767905	-19.07469703295569	580.953939851112	33.04458049629739	2.016680691313624	0	-0.565422819925097	0	6.558048917283676e-14	0	0	-2.550630868443776	0
3.975	-0.01170342420542415	0.003952621849086318	0.0001935052401609451	1.920894249298672	0	-0.444489992910458	-16.8708604373296	573.8570883384949	32.81800263400395	2.017283545292641	0	-0.5655382549828915	0	1.85482434533063e-13	0	0	-2.51808123569252	0
3.98	-0.0211092659977873	0.007071524607816893	0.0003521444357218786	1.940279351441217	0	-0.4448841913925665	-14.87585922928088	567.6963300455598	32.68284368404164	2.017979782168362	0	-0.5656398371483865	0	5.220751131754242e-13	0	0	-2.453413541984887	0
3.985	-0.03741847725478534	0.01244212079537189	0.0006195941913880169	1.959843140461887	0	-0.4452741551096461	-13.20914411567765	562.7622680419561	32.60594909102053	2.018815729497764	0	-0.5657295744028852	0	1.457250552866496e-12	0	0	-2.364573210029548	0
3.99	-0.06478939728456963	0.02139941200960362	0.001050355768431059	1.979589784956394	0	-0.4456571044585549	-11.87732196425765	558.9710361274081	32.5110312489494	2.019739222683759	0	-0.5657966807023932	0	4.012173839690325e-12	0	0	-2.25799717065216	0
3.995	-0.1089589041617998	0.03577366561400968	0.001708695711830398	1.999523080154834	0	-0.4460305065476478	-10.73679048236146	556.43584210144	32.30438373612517	2.020743441138079	0	-0.5658390982605853	0	1.084986310864733e-11	0	0	-2.134742876421939	0
4	-0.1772971515781689	0.05790622065394072	0.002652300570899921	2.019642163743483	0	-0.4463904394618798	-9.885250487284946	555.2633868343574	31.92709825825109	2.021845840708286	0	-0.5658577262369219	0	2.869054299692309e-11	0	0	-1.999584312896317	0
4.005	-0.2783117489575463	0.09048622100529288	0.003905670752765921	2.039944593102138	0	-0.4467328996715736	-9.220631601071609	555.4626076844321	31.27034853023176	2.023045978534451	0	-0.565854749927741	0	7.394922174608354e-11	0	0	-1.852715225088758	0
4.01	-0.4210601987340576	0.1363681029676234	0.005442190152178822	2.060423945722885	0	-0.4470543461633131	-8.623280318245692	557.0304745578668	30.33596968421877	2.024350854578723	0	-0.5658363496447786	0	1.853633808945876e-10	0	0	-1.695207591016739	0
4.015000000000001	-0.6139233892216274	0.1981800120005829	0.007152480395505213	2.081072229754908	0	-0.4473517440725874	-8.019945490543259	559.8510237498667	29.16302101168414	2.025757588652112	0	-0.5658070223146868	0	4.514347177325684e-10	0	0	-1.535270715352141	0
4.02	-0.864331942580883	0.2782469092742471	0.008821160108768159	2.101878462083455	0	-0.4476212460462987	-7.332075162582642	563.7200111493412	27.82202988381348	2.0272658465424	0	-0.5657757369501654	0	1.0680565182275e-09	0	0	-1.381017687103139	0
4.025	-1.177629016781736	0.3782257702512429	0.01009601782853193	2.122830822119341	0	-0.4478589414321532	-6.527260267821658	568.354417113561	26.47791297345747	2.028865749476906	0	-0.5657484406281842	0	2.456604777240079e-09	0	0	-1.248509982687786	0
4.03	-1.556767289331531	0.4990449351045179	0.01050055194073726	2.14391514995605	0	-0.4480604157444865	-5.575233569004249	573.4765419908389	25.22893559900576	2.030548939346168	0	-0.5657313721769084	0	5.496943424748713e-09	0	0	-1.147171031111334	0
4.035	-2.000556944600319	0.6403524616590365	0.009429564569824942	2.165117352657158	0	-0.4482214427409834	-4.50705274923855	578.8162077828053	24.20159164324561	2.032306534855438	0	-0.5657292047333816	0	1.196919438214983e-08	0	0	-1.086116800957612	0
4.04	-2.502198189599798	0.8000962909654081	0.006240037937155076	2.186422448445635	0	-0.4483380564055142	-3.358511986292712	584.157199835817	23.44764917264366	2.034130266474409	0	-0.5657444280029587	0	2.532208483868592e-08	0	0	-1.072098119039481	0
4.045	-3.048750223323422	0.9743265760766648	0.0003103083956359291	2.207816261842238	0	-0.4484067302455346	-2.153807013677969	589.3690219481757	22.96774845439841	2.036018384409631	0	-0.5657797122777206	0	5.19650193604726e-08	0	0	-1.108190904809355	0
4.05	-3.623418730417157	1.157819892587928	-0.008925590336775122	2.229287002084073	0	-0.4484235251503449	-0.9235543928721803	594.4625878824899	22.76144196725664	2.037964049170592	0	-0.5658359764826769	0	1.033559293220354e-07	0	0	-1.200833786608733	0
4.055	-4.203112645123999	1.343290738807287	-0.02187943188249222	2.250825662649662	0	-0.44838433502229	0.3581330505018001	599.5516658242417	22.75483094110222	2.039968409932922	0	-0.5659162961821085	0	1.991564971826065e-07	0	0	-1.344455818479823	0
4.06	-4.755061676705973	1.520385879368119	-0.03858957807218529	2.272426856393248	0	-0.4482847893927754	1.696726835571695	604.6975724592199	22.93861168566953	2.04203584836802	0	-0.5660236639009222	0	3.713183530928976e-07	0	0	-1.533443468143361	0
4.065	-5.232148348556115	1.674150675536416	-0.05839173729175392	2.294088728063241	0	-0.4481204981482633	3.131219835557595	610.0007270744361	23.28134889344556	2.044172508792378	0	-0.5661589684963438	0	6.685971363773469e-07	0	0	-1.766425291991951	0
4.07	-5.561571875754622	1.781519049678864	-0.07918019983745138	2.315814777284928	0	-0.4478889960959789	4.676006048707499	615.6454935227489	23.75377274876647	2.046380851676875	0	-0.5663191824767801	0	1.15628377470034e-06	0	0	-2.040773726687959	0
4.075	-5.651942840943243	1.813365293444235	-0.09733052332367821	2.337612164911899	0	-0.4475885085107358	6.328026146271974	621.7569700236985	24.36792687059993	2.048658518135396	0	-0.5664995794946256	0	1.908005752560005e-06	0	0	-2.353489268904831	0
4.08	-5.401353433435733	1.736920477635021	-0.1080963286177039	2.359495011094483	0	-0.4472181629614619	8.102165684199313	628.4078511117856	25.10864094663632	2.051003165546353	0	-0.5666922444659129	0	2.974999907257025e-06	0	0	-2.696322180064776	0
4.085	-4.750261029955134	1.532290185742327	-0.1069904770760551	2.381476982149009	0	-0.4467757580686447	9.969860418411692	635.6141611015818	25.95145958977174	2.053412905229306	0	-0.5668894048879511	0	4.33648553826993e-06	0	0	-3.056290616469433	0
4.09	-3.725942278337134	1.206697740716607	-0.09211254738441201	2.40357355241516	0	-0.446255401759723	11.91306253000839	643.3188500784293	26.8797516626134	2.055889959912685	0	-0.5670832828994501	0	5.811839882546854e-06	0	0	-3.420921836203803	0
4.095	-2.502006397299147	0.8143677844168472	-0.06664080248183546	2.42577222708014	0	-0.4456422268124865	13.90227647677723	651.3803887050144	27.8487621594435	2.058428771655077	0	-0.5672668424590855	0	7.061526038992794e-06	0	0	-3.779881464175041	0
4.1	-1.351287795797623	0.4424951324053914	-0.03822705570781739	2.447972583441725	0	-0.4448958969069402	15.93925069273035	659.6907366234486	28.81199291518179	2.061024513868074	0	-0.5674342383793297	0	7.685905311416441e-06	0	0	-4.127996622621581	0
4.105	-0.5235187034559251	0.1726862389529925	-0.01553982281499631	2.46965703251074	0	-0.443876414473899	17.99579915357742	668.10785542552	29.72045390201571	2.063673308141023	0	-0.567580655814797	0	7.393566868331425e-06	0	0	-4.456744254898851	0
4.109999999999999	-0.09376076484583759	0.03120696618307284	-0.002845722315222435	2.485691214101198	0	-0.4413166154464486	20.05344607533389	676.450744959422	30.54935440349686	2.066377502125615	0	-0.5677019368046688	0	5.787227275323714e-06	0	0	-4.756619023396617	0
4.115	-0.01189542335170062	0.004006485044835764	-0.0003180936251397894	2.465200784266209	0	-0.4347831154866604	22.20811233601265	684.8247768669345	31.24720166556101	2.069155339547245	0	-0.5677945367944323	0	1.353364115130895e-06	0	0	-5.012828660504852	0
4.12	-0.007173250962836108	0.002441988445710512	-0.0001934906665994417	2.486296303074549	0	-0.4382498800140518	24.47043175523006	693.7341673238179	31.81754886565312	2.072054540215567	0	-0.5678486536974002	0	1.002324866764351e-06	0	0	-5.208424327604106	0
4.125	-0.003162677913424586	0.001090728036558023	-8.249373272794472e-05	2.501118308825809	0	-0.4351012861620932	26.69845559789547	703.1171709462483	32.27043032706457	2.075077449665832	0	-0.5678546781394366	0	6.611662005477626e-07	0	0	-5.336570083252553	0
4.13	-0.00119225862992906	0.0004182255409441364	-2.695421971693791e-05	2.500554357854202	0	-0.4114268819289953	28.974252452128	712.6619229555795	32.60140077547975	2.078196701844354	0	-0.567808380146948	0	5.870809523715826e-07	0	0	-5.39408468217799	0
4.135	-0.0006988066630585142	0.0002501184206679597	-6.357654311530006e-06	2.436571660828494	0	-0.3811216851136371	31.37928799886117	722.4447273439395	32.85117935606526	2.081400703931205	0	-0.5677015600545935	0	3.210294917135443e-07	0	0	-5.3770290006115	0
4.14	-0.001711719223540612	0.0006213879496427303	4.805086581419444e-07	2.409735796477139	0	-0.4031707416668936	33.95602984111883	732.1989602266768	33.03198291485398	2.084645534578826	0	-0.5675292487280302	0	5.290304429915345e-07	0	0	-5.279813173193645	0
4.145	-0.005374782989703007	0.001983205169533876	3.675967697099353e-05	2.406595407349907	0	-0.4127699528143644	36.66664102158244	741.5630545731727	33.15081979926619	2.087869251538539	0	-0.5672917885735628	0	6.508328020120871e-07	0	0	-5.110762450296377	0
4.15	-0.01563999789146974	0.005879182201471546	0.0001891316000546197	2.415069868326601	0	-0.4162332261605619	39.4619952063393	750.5202149234713	33.2075871990081	2.091013653246309	0	-0.566992640556318	0	7.156329297952537e-07	0	0	-4.895793029655721	0
4.155	-0.03818170063900427	0.01465113448900922	0.0006537667293232106	2.427309397668418	0	-0.4176880838811549	42.27936378688496	759.1564332603384	33.21668514567532	2.094032283337838	0	-0.5666297893988061	0	6.854664532233209e-07	0	0	-4.658106394663903	0
4.16	-0.0772200220944526	0.03030393356823497	0.001718400893310665	2.440761628507007	0	-0.418527134215791	44.99023341141567	767.5716890985399	33.12701073761872	2.096901776088301	0	-0.5661950556616977	0	5.545964935028611e-07	0	0	-4.410248430951398	0
4.165	-0.1311756520962473	0.05274924642614302	0.003611579763977323	2.454561958740226	0	-0.4191901664038176	47.86443448720878	776.0946980773153	32.95921133532671	2.099626550641776	0	-0.5656727045383421	0	3.864930077628753e-07	0	0	-4.147417513388902	0
4.17	-0.191634324688643	0.07910956748272287	0.006309131855092285	2.468352043454674	0	-0.4198238228993885	51.00070649560175	784.8043199521384	32.70846674001245	2.102232591045453	0	-0.5650462157102816	0	2.407867406677144e-07	0	0	-3.840817352261524	0
4.175	-0.247457703919398	0.1050398952982988	0.009491193672449711	2.481945671807453	0	-0.4204762983738078	54.41121678209705	793.4322944744677	32.38147010439616	2.104757906571576	0	-0.5643172319409016	0	1.39105183438043e-07	0	0	-3.46864421809525	0
4.18	-0.2903421158428146	0.1268991169953611	0.01269698929171029	2.495226240674688	0	-0.4211606985395698	58.13182816413003	801.7233999916855	32.06656887328209	2.107240269196483	0	-0.5635006845829696	0	7.704159505489416e-08	0	0	-3.028382281683591	0
4.185	-0.3176611682782162	0.1431173097736378	0.01555206438663409	2.508109182313556	0	-0.4218766691176178	61.88600337064643	809.4690890380778	31.79834920424845	2.109690218800292	0	-0.5626172953988052	0	4.203989366347027e-08	0	0	-2.528619410749243	0
4.19	-0.3320479481730875	0.1543347376533241	0.01790471021920058	2.520533668779729	0	-0.4226178526305741	65.57370041242328	816.7011106603987	31.6405383803094	2.112081385626882	0	-0.5616893486508259	0	2.301334904586394e-08	0	0	-1.994262506185393	0
4.195	-0.3387702683224207	0.1625275318141113	0.01981437921801685	2.532454076662808	0	-0.423374879696635	69.27781579159404	823.5157284242024	31.69771539368501	2.114371795370037	0	-0.5607280504248575	0	1.269437002737739e-08	0	0	-1.457302187363268	0
